<svg width="42" height="37" viewBox="0 0 42 37" fill="none" xmlns="http://www.w3.org/2000/svg">
<path d="M35.6863 21.0315V34.6922C35.6863 35.1855 35.5228 35.6124 35.1957 35.9729C34.8687 36.3334 34.4814 36.5137 34.0338 36.5137H24.1189V25.5851H17.5089V36.5137H7.594C7.14645 36.5137 6.75914 36.3334 6.43209 35.9729C6.10503 35.6124 5.94151 35.1855 5.94151 34.6922V21.0315C5.94151 21.0126 5.94581 20.9841 5.95442 20.9461C5.96302 20.9082 5.96733 20.8797 5.96733 20.8608L20.8139 7.37082L35.6605 20.8608C35.6777 20.8987 35.6863 20.9556 35.6863 21.0315ZM41.4442 19.0678L39.8434 21.1738C39.7057 21.3446 39.5249 21.4489 39.3012 21.4869H39.2237C38.9999 21.4869 38.8192 21.4205 38.6815 21.2877L20.8139 4.86635L2.94637 21.2877C2.73981 21.4395 2.53324 21.5059 2.32668 21.4869C2.10291 21.4489 1.92217 21.3446 1.78446 21.1738L0.18361 19.0678C0.0459025 18.8781 -0.0143445 18.6551 0.00286891 18.399C0.0200823 18.1429 0.114756 17.9389 0.286891 17.7871L18.8516 0.739677C19.4024 0.246372 20.0565 -0.000278473 20.8139 -0.000278473C21.5713 -0.000278473 22.2254 0.246372 22.7763 0.739677L29.0764 6.54548V0.995815C29.0764 0.73019 29.1538 0.511997 29.3088 0.34124C29.4637 0.170479 29.6616 0.0851021 29.9026 0.0851021H34.8601C35.1011 0.0851021 35.299 0.170479 35.4539 0.34124C35.6089 0.511997 35.6863 0.73019 35.6863 0.995815V12.6074L41.3409 17.7871C41.5131 17.9389 41.6078 18.1429 41.625 18.399C41.6422 18.6551 41.5819 18.8781 41.4442 19.0678Z" fill="#24262A"/>
</svg>
